<svg width="165" height="120" viewBox="0 0 165 120" fill="none" xmlns="http://www.w3.org/2000/svg">
<path d="M30.1431 16.6818L33.4835 87.2218C33.7 91.8714 37.0483 95.5366 40.9609 95.4152L153.748 91.5969C158.55 91.4345 162.369 86.8367 162.447 81.1309L163.444 8.58813C163.475 6.42379 162.679 4.40558 161.256 3.05316C160.15 1.99999 158.758 1.46569 157.351 1.56235L35.5714 9.42556C32.401 9.63125 29.9653 12.8859 30.1431 16.6818ZM40.7444 96.9702C36.0353 96.9702 32.1922 92.7776 31.9293 87.2945L28.5889 16.7552C28.3723 12.1188 31.4576 8.13654 35.4708 7.8775L157.251 0.0142824C159.099 -0.109438 160.9 0.574128 162.323 1.92887C164.063 3.57822 165.037 6.01398 164.999 8.60979L164.001 81.1525C163.916 87.6881 159.431 92.9555 153.802 93.1465L41.015 96.9656C40.9299 96.9687 40.8372 96.9702 40.7444 96.9702Z" fill="#D4DDEA"/>
<path d="M57.8568 28.3109C57.4392 28.3109 57.0913 27.9792 57.0835 27.5601C57.0681 27.1317 57.4005 26.7737 57.8336 26.7597L150.168 23.7456L150.191 23.7449C150.609 23.7449 150.949 24.0758 150.964 24.4957C150.98 24.9241 150.64 25.2821 150.214 25.2952L57.88 28.3101L57.8568 28.3109Z" fill="#D4DDEA"/>
<path d="M48.4931 22.8053L48.3075 22.8107C46.3435 22.9344 44.8357 24.968 44.9439 27.3473C45.0058 28.6286 45.5239 29.804 46.3822 30.5718C47.0472 31.1649 47.859 31.4564 48.6787 31.4123C50.6427 31.2894 52.1583 29.2542 52.0423 26.8765C51.9882 25.5952 51.4624 24.419 50.6041 23.6512C49.9932 23.1014 49.2509 22.8053 48.4931 22.8053ZM48.4931 32.9704C47.3564 32.9704 46.2429 32.5343 45.3459 31.727C44.1861 30.6824 43.4748 29.1119 43.3974 27.4177C43.2428 24.1994 45.4079 21.4382 48.2148 21.2626C49.4519 21.1853 50.6659 21.6237 51.6402 22.496C52.8078 23.5406 53.5192 25.1111 53.5965 26.8053C53.7434 30.0236 51.5784 32.7856 48.7792 32.9611C48.6787 32.9673 48.5859 32.9704 48.4931 32.9704Z" fill="#D4DDEA"/>
<path d="M59.3568 49.2075C58.9392 49.2075 58.5913 48.8758 58.5835 48.4567C58.5681 48.029 58.9005 47.6702 59.3336 47.6563L151.66 44.6437C152.101 44.6205 152.449 44.9654 152.464 45.393C152.48 45.8214 152.139 46.1794 151.714 46.1933L59.3799 49.2067L59.3568 49.2075Z" fill="#D4DDEA"/>
<path d="M49.9923 43.7144L49.8067 43.7198C47.8427 43.8435 46.3349 45.878 46.4431 48.2565C46.4973 49.5378 47.0231 50.7131 47.8814 51.4818C48.5464 52.0741 49.3582 52.3702 50.1779 52.3223C52.1419 52.1985 53.6499 50.1633 53.5416 47.7856C53.4875 46.5043 52.9617 45.3289 52.1034 44.5603C51.4925 44.0105 50.7501 43.7144 49.9923 43.7144ZM49.9923 53.8788C48.8556 53.8788 47.7422 53.4435 46.8452 52.6354C45.6854 51.5915 44.9662 50.021 44.8889 48.3276C44.742 45.1086 46.9071 42.3473 49.714 42.1725C50.9434 42.0929 52.1652 42.5321 53.1395 43.4051C54.3071 44.4498 55.0185 46.0202 55.0958 47.7144C55.2428 50.9335 53.0777 53.6948 50.2708 53.8695C50.178 53.8757 50.0851 53.8788 49.9923 53.8788Z" fill="#D4DDEA"/>
<path d="M60.8568 70.1161C60.4392 70.1161 60.0913 69.7852 60.0835 69.3653C60.0681 68.9385 60.4005 68.5797 60.8258 68.5657L114.528 66.8135L114.559 66.8127C114.969 66.8127 115.317 67.143 115.332 67.5628C115.348 67.9912 115.008 68.3492 114.582 68.3631L60.88 70.1161H60.8568Z" fill="#D4DDEA"/>
<path d="M51.4923 64.6182L51.3068 64.6244C49.3427 64.7473 47.8349 66.7818 47.9431 69.1603C47.9973 70.4416 48.5231 71.6177 49.3814 72.3856C50.0386 72.9779 50.8583 73.2733 51.6779 73.2253C53.642 73.1024 55.1498 71.0679 55.0415 68.6894C54.9874 67.4073 54.4616 66.2328 53.6033 65.4649C52.9924 64.9151 52.2501 64.6182 51.4923 64.6182ZM51.4923 74.7819C50.3557 74.7819 49.2421 74.3473 48.3451 73.5401C47.1775 72.4954 46.4662 70.9257 46.3889 69.2315C46.242 66.0132 48.4071 63.2511 51.214 63.0763C52.4512 63.0005 53.6651 63.4367 54.6394 64.3089C55.7993 65.3536 56.5185 66.924 56.5958 68.6183C56.7427 71.8373 54.5776 74.5987 51.7707 74.7734C51.6779 74.7788 51.5851 74.7819 51.4923 74.7819Z" fill="#D4DDEA"/>
<path fill-rule="evenodd" clip-rule="evenodd" d="M41.9583 86.7607L1.56864 113.284C-0.125274 114.396 -0.512727 116.716 0.727951 118.318L0.93161 118.581C2.02939 119.999 4.07186 120.252 5.48248 119.145L43.6994 89.1593L41.9583 86.7607Z" fill="#93A3BB"/>
<path fill-rule="evenodd" clip-rule="evenodd" d="M64.7888 92.6221C53.3519 95.3238 41.9301 88.4104 39.2775 77.1802C36.6232 65.95 43.7447 54.6559 55.1799 51.9542C66.6168 49.2523 78.0386 56.1659 80.6929 67.3959C83.3455 78.6262 76.2257 89.9202 64.7888 92.6221ZM54.3536 48.4529C40.9485 51.62 32.6016 64.8588 35.7117 78.0226C38.8217 91.1866 52.2101 99.2906 65.6151 96.1234C79.0219 92.9563 87.367 79.7175 84.257 66.5535C81.147 53.3899 67.7586 45.2857 54.3536 48.4529Z" fill="#627085"/>
</svg>
